<svg id="Layer_1" data-name="Layer 1" xmlns="http://www.w3.org/2000/svg" viewBox="0 0 146.18 42.51"><defs><style>.cls-1{fill:#fff;}</style></defs><path class="cls-1" d="M96.59,20.28c.15-.83.27-1.68.46-2.51A37.25,37.25,0,0,1,100.28,9a10,10,0,0,1,6.83-5.11A18.33,18.33,0,0,1,112,3.36a.91.91,0,0,0,.57-.16,13.73,13.73,0,0,1,17.61,0,1,1,0,0,0,.61.17A16.05,16.05,0,0,1,138.38,5a9.39,9.39,0,0,1,4.23,4.31,40,40,0,0,1,3.22,9,12.61,12.61,0,0,1,.22,4.66c-.58,3.33-3.15,5-6.47,4.19-.48-.11-1-.29-1.48-.45.09.74.2,1.46.27,2.19a12.93,12.93,0,0,1-1,7.23,10.22,10.22,0,0,1-6,5,22.6,22.6,0,0,1-6.09,1.25,42.52,42.52,0,0,1-9.23-.17,17.1,17.1,0,0,1-7.48-2.54,9.41,9.41,0,0,1-4.1-6.73,18.09,18.09,0,0,1,.17-5.64c0-.18.05-.37.07-.54-.79.19-1.54.42-2.31.54-2.8.41-5.22-1.25-5.68-4.48,0-.13-.06-.24-.09-.37Zm26,19.84c.63,0,1.18,0,1.73-.09a22.4,22.4,0,0,0,6.48-1.24,7.51,7.51,0,0,0,5.11-5.54,13.91,13.91,0,0,0,0-5.53q-.92-5.05-1.9-10.12a35.85,35.85,0,0,0-2.39-8.24,12.33,12.33,0,0,0-3.73-5,10.87,10.87,0,0,0-9-1.76A10,10,0,0,0,111.87,8,29.26,29.26,0,0,0,109,16.64c-.59,3-1.08,5.93-1.67,8.89a23.47,23.47,0,0,0-.66,6.08,7.43,7.43,0,0,0,4.44,6.78,18.35,18.35,0,0,0,6.26,1.55c.93.09,1.86.13,2.82.19,0-.22,0-.38,0-.53,0-1.29,0-2.58,0-3.88a.54.54,0,0,0-.42-.62,4.59,4.59,0,0,1-3.13-4.2,2.33,2.33,0,0,1,2.27-2.56q2.44,0,4.89,0a2.31,2.31,0,0,1,2.23,1.92,4.5,4.5,0,0,1-2.67,4.66,1.17,1.17,0,0,0-.84,1.37C122.59,37.54,122.55,38.8,122.55,40.12ZM110.38,5.72c-1,.19-1.87.3-2.74.54a7.81,7.81,0,0,0-5.37,4.06,39.82,39.82,0,0,0-2.73,7.17A13.49,13.49,0,0,0,99,22.22C99.16,24,100.19,25,101.7,25a4.92,4.92,0,0,0,3.14-1.23,2.07,2.07,0,0,0,.62-1c.34-1.65.6-3.32.91-5a41.07,41.07,0,0,1,2.55-9C109.34,7.7,109.84,6.79,110.38,5.72Zm22,.12a2.09,2.09,0,0,0,.14.3,23.67,23.67,0,0,1,2.3,5.2A70.62,70.62,0,0,1,137.14,22,2.91,2.91,0,0,0,139,24.45a6.93,6.93,0,0,0,1.47.45,2.52,2.52,0,0,0,3.17-2.18,10.46,10.46,0,0,0-.16-4,44.25,44.25,0,0,0-2.72-7.83C139.29,7.25,135.35,5.93,132.41,5.84ZM119.07,30.73a2.31,2.31,0,0,0,2.4,2.33,2.25,2.25,0,0,0,2.19-2.33Zm-7.13-13.18a1.18,1.18,0,0,0,1.53,1.27,1.15,1.15,0,0,0,.83-1.13,1.18,1.18,0,0,1,2.35,0c.1.82.62,1.29,1.32,1.21a1.21,1.21,0,0,0,1-1.49,3.53,3.53,0,0,0-7,.17Zm11.81-.05a1.19,1.19,0,1,0,2.36.24c.1-.77.54-1.22,1.18-1.22s1.07.46,1.17,1.23a1.18,1.18,0,1,0,2.35-.22,3.54,3.54,0,0,0-7.06,0Z"/><path class="cls-1" d="M12.14,27.76H7.85v7.38H0V7.37H12.7C20.27,7.37,25,11.3,25,17.64a9.21,9.21,0,0,1-5.43,8.77l6,8.73H17.18Zm.08-14.2H7.85v8.13h4.37c3.25,0,4.88-1.51,4.88-4.05S15.47,13.56,12.22,13.56Z"/><path class="cls-1" d="M57.52,17.64c0,6.31-4.76,10.24-12.34,10.24H40.34v7.26H32.49V7.37H45.18C52.76,7.37,57.52,11.3,57.52,17.64Zm-7.94,0c0-2.57-1.62-4.08-4.88-4.08H40.34v8.13H44.7C48,21.69,49.58,20.18,49.58,17.64Z"/><path class="cls-1" d="M83.46,20.66H90.4v11.5A20.73,20.73,0,0,1,78.74,35.7c-8.85,0-15.32-6-15.32-14.45S69.89,6.81,78.9,6.81c5.19,0,9.4,1.79,12.14,5.08l-5,4.52a8.68,8.68,0,0,0-6.75-3.09c-4.76,0-7.93,3.13-7.93,7.93s3.17,7.94,7.85,7.94a10.07,10.07,0,0,0,4.25-.91Z"/></svg>